<?xml version="1.0" encoding="UTF-8"?>
<svg id="Layer_2" data-name="Layer 2" xmlns="http://www.w3.org/2000/svg" viewBox="0 0 540.35 100.04">
  <defs>
    <style>
      .cls-1 {
        fill: #fff;
      }
    </style>
  </defs>
  <g id="Layer_1-2" data-name="Layer 1">
    <g>
      <path class="cls-1" d="m305.89,39.61l-8.61-15.22h-3.69v15.22h-7.83V.56h14.66c3.02,0,5.59.53,7.72,1.59,2.13,1.06,3.72,2.5,4.78,4.31,1.06,1.81,1.59,3.83,1.59,6.07,0,2.57-.75,4.9-2.24,6.97-1.49,2.07-3.71,3.5-6.66,4.28l9.34,15.83h-9.06Zm-12.31-21.09h6.55c2.13,0,3.71-.51,4.76-1.54,1.04-1.03,1.57-2.45,1.57-4.28s-.52-3.18-1.57-4.17c-1.04-.99-2.63-1.48-4.76-1.48h-6.55v11.47Z"/>
      <path class="cls-1" d="m329.44.56v39.05h-7.83V.56h7.83Z"/>
      <path class="cls-1" d="m364.35,12.31c-.9-1.64-2.13-2.89-3.69-3.75-1.57-.86-3.39-1.29-5.48-1.29-2.31,0-4.36.52-6.15,1.57-1.79,1.04-3.19,2.54-4.2,4.48-1.01,1.94-1.51,4.18-1.51,6.71s.51,4.89,1.54,6.82c1.03,1.94,2.45,3.43,4.28,4.48,1.83,1.04,3.95,1.57,6.38,1.57,2.98,0,5.43-.79,7.33-2.38,1.9-1.59,3.15-3.79,3.75-6.63h-13.43v-5.99h21.15v6.83c-.52,2.72-1.64,5.24-3.36,7.55-1.72,2.31-3.93,4.17-6.63,5.57-2.7,1.4-5.73,2.1-9.09,2.1-3.77,0-7.17-.85-10.21-2.55-3.04-1.7-5.43-4.06-7.16-7.08-1.73-3.02-2.6-6.45-2.6-10.29s.87-7.28,2.6-10.32c1.73-3.04,4.12-5.41,7.16-7.1,3.04-1.7,6.42-2.54,10.15-2.54,4.4,0,8.22,1.07,11.47,3.22,3.24,2.14,5.48,5.16,6.71,9.03h-9.01Z"/>
      <path class="cls-1" d="m432.32.56l-10.91,39.05h-9.23l-7.33-27.8-7.66,27.8-9.17.06L377.5.56h8.39l6.88,30.32,7.94-30.32h8.73l7.5,30.15,6.94-30.15h8.45Z"/>
      <path class="cls-1" d="m461.36,32.17h-15.55l-2.57,7.44h-8.22L449.05.5h9.12l14.04,39.1h-8.28l-2.57-7.44Zm-2.13-6.27l-5.65-16.34-5.65,16.34h11.3Z"/>
      <path class="cls-1" d="m508.52.56l-13.2,25.45v13.59h-7.83v-13.59l-13.26-25.45h8.84l8.39,17.85,8.34-17.85h8.73Z"/>
      <path class="cls-1" d="m519.18,38.6c-2.18-.93-3.91-2.27-5.18-4.03-1.27-1.75-1.92-3.82-1.96-6.21h8.39c.11,1.6.68,2.87,1.71,3.8,1.03.93,2.43,1.4,4.22,1.4s3.26-.44,4.31-1.31,1.57-2.02,1.57-3.44c0-1.16-.36-2.11-1.06-2.85-.71-.75-1.59-1.33-2.66-1.76s-2.53-.9-4.39-1.43c-2.54-.75-4.6-1.48-6.18-2.21s-2.95-1.83-4.08-3.3c-1.14-1.47-1.71-3.44-1.71-5.9,0-2.31.58-4.33,1.73-6.04,1.16-1.72,2.78-3.03,4.87-3.94,2.09-.91,4.48-1.37,7.16-1.37,4.03,0,7.3.98,9.82,2.94,2.52,1.96,3.91,4.69,4.17,8.2h-8.61c-.08-1.34-.64-2.45-1.71-3.33-1.06-.88-2.47-1.31-4.22-1.31-1.53,0-2.75.39-3.66,1.17s-1.37,1.92-1.37,3.41c0,1.04.34,1.91,1.04,2.6.69.69,1.55,1.25,2.57,1.68,1.02.43,2.47.92,4.34,1.48,2.54.75,4.61,1.49,6.21,2.24,1.6.75,2.98,1.87,4.14,3.36,1.16,1.49,1.73,3.45,1.73,5.87,0,2.09-.54,4.03-1.62,5.82-1.08,1.79-2.67,3.22-4.76,4.28-2.09,1.06-4.57,1.59-7.44,1.59-2.72,0-5.17-.47-7.36-1.4Z"/>
    </g>
    <g>
      <path class="cls-1" d="m189.69,39.75l20.41,24.95h39.38v9.77h-29.14c-19.02,0-34.43-15.54-34.43-34.72h0s-32.99,0-32.99,0h0c0,33.3,26.77,60.29,59.79,60.29h67.28v-60.29h-90.31Z"/>
      <path class="cls-1" d="m42.47,36.95c0,3.19,1.28,6.07,3.35,8.15,2.07,2.09,4.93,3.38,8.09,3.38h93.5v51.56h-30.93v-25.16h-43.3l-28.66,25.16H0l35.05-30.15h.14c-6.94,0-24.74-15.63-24.74-34.92h0C10.45,15.68,25.96.04,45.09.04h234.91l-19.59,25.37H53.92c-6.32,0-11.45,5.16-11.45,11.54Z"/>
    </g>
    <g>
      <path class="cls-1" d="m314.84,71.7c-.89-1.64-2.12-2.89-3.69-3.75-1.57-.86-3.39-1.29-5.48-1.29-2.31,0-4.36.52-6.15,1.57-1.79,1.04-3.19,2.54-4.2,4.48-1.01,1.94-1.51,4.18-1.51,6.71s.51,4.89,1.54,6.82c1.03,1.94,2.45,3.43,4.28,4.48,1.83,1.04,3.95,1.57,6.38,1.57,2.98,0,5.43-.79,7.33-2.38s3.15-3.79,3.75-6.63h-13.43v-5.99h21.15v6.83c-.52,2.72-1.64,5.24-3.36,7.55-1.72,2.31-3.93,4.17-6.63,5.57-2.7,1.4-5.73,2.1-9.09,2.1-3.77,0-7.17-.85-10.21-2.55-3.04-1.7-5.43-4.06-7.16-7.08s-2.6-6.45-2.6-10.29.87-7.28,2.6-10.32c1.73-3.04,4.12-5.41,7.16-7.1s6.42-2.54,10.15-2.54c4.4,0,8.22,1.07,11.47,3.22,3.24,2.14,5.48,5.16,6.71,9.03h-9.01Z"/>
      <path class="cls-1" d="m350.76,99l-8.61-15.22h-3.69v15.22h-7.83v-39.05h14.66c3.02,0,5.6.53,7.72,1.59,2.13,1.06,3.72,2.5,4.78,4.31,1.06,1.81,1.59,3.83,1.59,6.07,0,2.57-.75,4.9-2.24,6.97-1.49,2.07-3.71,3.5-6.66,4.28l9.34,15.83h-9.06Zm-12.31-21.09h6.55c2.12,0,3.71-.51,4.75-1.54,1.04-1.03,1.57-2.45,1.57-4.28s-.52-3.18-1.57-4.17c-1.04-.99-2.63-1.48-4.75-1.48h-6.55v11.47Z"/>
      <path class="cls-1" d="m374.54,96.81c-3.06-1.72-5.48-4.09-7.27-7.13-1.79-3.04-2.69-6.48-2.69-10.32s.9-7.23,2.69-10.27c1.79-3.04,4.21-5.42,7.27-7.13,3.06-1.71,6.41-2.57,10.07-2.57s7.06.86,10.1,2.57c3.04,1.72,5.45,4.09,7.22,7.13,1.77,3.04,2.66,6.46,2.66,10.27s-.89,7.28-2.66,10.32c-1.77,3.04-4.19,5.42-7.24,7.13-3.06,1.72-6.41,2.57-10.07,2.57s-7.01-.86-10.07-2.57Zm16.28-6.01c1.79-1.06,3.19-2.58,4.2-4.56,1.01-1.98,1.51-4.27,1.51-6.88s-.5-4.9-1.51-6.85c-1.01-1.96-2.41-3.46-4.2-4.5-1.79-1.04-3.86-1.57-6.21-1.57s-4.43.52-6.24,1.57c-1.81,1.04-3.22,2.54-4.22,4.5-1.01,1.96-1.51,4.24-1.51,6.85s.5,4.9,1.51,6.88c1.01,1.98,2.42,3.5,4.22,4.56s3.89,1.59,6.24,1.59,4.42-.53,6.21-1.59Z"/>
      <path class="cls-1" d="m418.12,59.95v24.17c0,2.65.69,4.67,2.07,6.07,1.38,1.4,3.32,2.1,5.82,2.1s4.49-.7,5.87-2.1c1.38-1.4,2.07-3.42,2.07-6.07v-24.17h7.89v24.11c0,3.32-.72,6.13-2.15,8.42-1.44,2.29-3.36,4.02-5.76,5.17-2.41,1.16-5.08,1.73-8.03,1.73s-5.55-.58-7.92-1.73c-2.37-1.16-4.24-2.88-5.62-5.17-1.38-2.29-2.07-5.1-2.07-8.42v-24.11h7.83Z"/>
      <path class="cls-1" d="m476.38,77.9c-.99,1.83-2.54,3.3-4.64,4.42-2.11,1.12-4.77,1.68-7.97,1.68h-6.55v14.99h-7.83v-39.05h14.38c3.02,0,5.59.52,7.72,1.57,2.12,1.04,3.72,2.48,4.78,4.31,1.06,1.83,1.59,3.9,1.59,6.21,0,2.09-.5,4.05-1.48,5.87Zm-8.14-1.71c1.04-.99,1.57-2.38,1.57-4.17,0-3.8-2.13-5.71-6.38-5.71h-6.21v11.36h6.21c2.16,0,3.77-.49,4.81-1.48Z"/>
    </g>
  </g>
</svg>